<?xml version="1.0" encoding="UTF-8"?>
<svg id="LOGO" xmlns="http://www.w3.org/2000/svg" xmlns:serif="http://www.serif.com/" version="1.1" viewBox="0 0 2858.64 427.65">
  <!-- Generator: Adobe Illustrator 30.1.0, SVG Export Plug-In . SVG Version: 2.1.1 Build 136)  -->
  <defs>
    <style>
      .st0 {
        fill: #620dff;
      }

      .st1 {
        fill: #fff200;
      }
    </style>
  </defs>
  <g>
    <path class="st1" d="M2783.61,359.02l-71.98-99.61-65.46,99.61h-70.85l101.43-148.22-102-141.61h73.19l72.62,100.81,67.85-100.81h70.23l-103.2,148.79,101.43,141.04h-73.26Z"/>
    <path class="st1" d="M2460.31,359.02l-72.01-99.61-65.44,99.61h-70.87l101.45-148.22-102.02-141.61h73.21l72.62,100.81,67.85-100.81h70.23l-103.23,148.79,101.45,141.04h-73.26.02Z"/>
    <path class="st1" d="M2225.22,196.99c0-78.62-52.84-136.18-133.28-136.18s-136.26,59.39-136.26,153.01,58.27,153.02,141.11,153.02c61.23,0,105.68-34.8,126.03-89.4l-52.2-16.77c-12.6,30.01-36.06,49.18-72.05,49.18-46.22,0-74.46-32.4-79.83-79.82h204.72c1.21-11.98,1.77-25.22,1.77-32.97v-.06h-.01ZM2019.92,183.81c7.82-39.59,31.83-66.01,72.05-66.01,43.84,0,67.21,31.77,72.08,66.01h-144.13Z"/>
    <path class="st1" d="M1842.58,195.79c0-53.4-24.03-76.79-60.03-76.79-43.81,0-68.39,35.43-68.39,87v153.01h-64.82V69.19h58.82v52.2c18.03-37.83,50.43-60.59,97.22-60.59,60.03,0,102.07,37.83,102.07,113.42v184.79h-64.8v-163.23h-.07,0Z"/>
    <path class="st1" d="M1596.81,196.99c0-78.62-52.84-136.18-133.28-136.18s-136.25,59.39-136.25,153.01,58.26,153.02,141.04,153.02c61.21,0,105.66-34.8,126.03-89.4l-52.2-16.77c-12.62,30.01-36,49.18-72.06,49.18-46.21,0-74.46-32.4-79.82-79.82h204.72c1.18-11.98,1.82-25.22,1.82-32.97v-.06h0ZM1391.53,183.81c7.82-39.59,31.84-66.01,72.06-66.01,43.82,0,67.21,31.77,72.05,66.01h-144.12,0Z"/>
    <path class="st1" d="M1142.88,359.02l-112.85-289.83h67.27l74.4,205.22,73.83-205.22h67.27l-112.85,289.83h-57.07Z"/>
    <path class="st1" d="M1016.53,196.99c0-78.62-52.83-136.18-133.28-136.18s-136.24,59.39-136.24,153.01,58.25,153.02,141.04,153.02c61.22,0,105.67-34.8,126.03-89.4l-52.2-16.77c-12.61,30.01-36,49.18-72.06,49.18-46.21,0-74.46-32.4-79.82-79.82h204.71c1.2-11.98,1.83-25.22,1.83-32.97v-.06h-.01ZM811.18,183.81c7.82-39.59,31.84-66.01,72.06-66.01,43.82,0,67.21,31.77,72.06,66.01h-144.13.01Z"/>
    <path class="st1" d="M557.8,359.02V69.19h59.45v56.99c15.01-43.19,43.82-65.38,85.24-65.38,10.78,0,19.8,1.2,25.79,2.39v65.38c-9.58-2.39-18.03-3.03-25.22-3.03-46.84,0-79.82,34.17-79.82,112.22v121.18h-65.44v.08Z"/>
  </g>
  <g>
    <rect class="st1" width="424.38" height="427.65" rx="38.36" ry="38.36"/>
    <path class="st0" d="M62.59,246.03l81.82,47.23c13.57,7.83,21.93,22.32,21.93,38v26.36l47.72-27.69v-26.35c0-15.69-8.36-30.18-21.94-38.01l-69.67-40.19c-7.54-4.35-16.83-4.34-24.36.03l-35.52,20.62h.02ZM219.08,244.39c13.62,7.82,22.02,22.34,22.02,38.06v32.07l47.82-27.58v-32.07c0-15.72-8.41-30.24-22.02-38.06l-121.96-70.01c-7.51-4.31-16.75-4.3-24.25.03l-35.7,20.59,134.09,76.97ZM341.19,167.66c13.58,7.83,21.96,22.32,21.96,38.02v38.09l-47.74,27.68v-38.09c0-15.69-8.37-30.19-21.96-38.02L107.97,88.45l35.58-20.63c7.52-4.36,16.8-4.38,24.34-.04l173.3,99.88h0Z"/>
  </g>
</svg>