<svg width="1029" height="1037" viewBox="0 0 1029 1037" fill="none" xmlns="http://www.w3.org/2000/svg">
<path d="M938.301 -3.08762e-05H89.764C40.1893 -3.08762e-05 0 40.1906 0 89.7653V946.268C0 995.844 40.1893 1036.03 89.764 1036.03H938.301C987.877 1036.03 1028.07 995.844 1028.07 946.268V89.7653C1028.07 40.1906 987.877 -3.08762e-05 938.301 -3.08762e-05Z" fill="white"/>
<path d="M828.874 405.35C862.028 424.464 882.467 459.838 882.467 498.141V591.101L765.955 658.66V565.7C765.955 527.396 745.516 492.021 712.362 472.909L259.66 212.016L346.5 161.674C364.859 151.024 387.502 150.993 405.89 161.582L828.874 405.35ZM530.834 592.612C564.082 611.694 584.582 647.13 584.582 685.494V763.766L701.294 696.454V618.182C701.294 579.818 680.779 544.382 647.547 525.3L349.876 354.438C331.534 343.912 308.999 343.942 290.688 354.5L203.554 404.765L530.834 592.612ZM148.896 596.62L348.598 711.884C381.722 730.996 402.13 766.356 402.13 804.628V868.965L518.595 801.406V737.085C518.595 698.797 498.187 663.422 465.048 644.309L295.019 546.217C276.615 535.596 253.942 535.628 235.552 546.293L148.882 596.62H148.896Z" fill="black"/>
</svg>
