<svg width="1036" height="1044" viewBox="0 0 1036 1044" fill="none" xmlns="http://www.w3.org/2000/svg">
<path d="M942.155 2.15216e-05H93.6173C41.9147 2.15216e-05 0 41.9133 0 93.6187V950.121C0 1001.83 41.9147 1043.74 93.6173 1043.74H942.155C993.859 1043.74 1035.77 1001.83 1035.77 950.121V93.6187C1035.77 41.9133 993.859 2.15216e-05 942.155 2.15216e-05Z" fill="black"/>
<path d="M832.729 413.982C865.883 433.079 886.317 468.47 886.317 506.773V599.718L769.803 667.275V574.331C769.803 536.027 749.37 500.638 716.215 481.541L263.517 220.647L350.353 170.291C368.718 159.639 391.359 159.609 409.751 170.214L832.729 413.982ZM534.691 601.243C567.933 620.326 588.439 655.762 588.439 694.126V772.398L705.145 705.086V626.814C705.145 588.434 684.638 553.014 651.397 533.931L353.731 363.07C335.395 352.543 312.853 352.574 294.537 363.131L207.41 413.381L534.691 601.243ZM152.746 605.235L352.457 720.499C385.581 739.613 405.989 774.987 405.989 813.259V877.597L522.451 810.022V745.717C522.451 707.413 502.038 672.054 468.907 652.941L298.867 554.849C280.466 544.229 257.794 544.259 239.414 554.926L152.739 605.235H152.746Z" fill="white"/>
</svg>
