<svg width="1036" height="1044" viewBox="0 0 1036 1044" fill="none" xmlns="http://www.w3.org/2000/svg">
<path d="M942.155 0.000143592H93.6173C41.9147 0.000143592 0 41.9135 0 93.6175V950.121C0 1001.83 41.9147 1043.74 93.6173 1043.74H942.155C993.857 1043.74 1035.77 1001.83 1035.77 950.121V93.6175C1035.77 41.9135 993.857 0.000143592 942.155 0.000143592Z" fill="#D3C2FF"/>
<path d="M831.52 415.046C864.641 434.159 885.165 469.456 885.165 507.867V600.858L768.701 668.494V575.518C768.701 537.262 748.33 501.81 715.054 482.682L262.254 221.758L349.176 171.386C367.525 160.658 390.228 160.658 408.576 171.386L831.676 415.2L831.52 415.046ZM533.433 602.415C566.709 621.543 587.233 656.995 587.233 695.252V773.462L704.009 706.134V627.924C704.009 589.514 683.485 554.062 650.209 535.088L352.437 364.211C334.089 353.638 311.542 353.638 293.193 364.211L206.117 414.428L533.433 602.26V602.415ZM151.382 606.284L351.192 721.502C384.313 740.63 404.682 775.927 404.682 814.339V878.706L521.149 811.071V746.687C521.149 708.446 500.778 672.994 467.658 653.866L297.548 555.742C279.2 545.168 256.497 545.168 238.148 555.742L151.538 606.13L151.382 606.284Z" fill="#2D009E"/>
</svg>
